<?xml version="1.0" standalone="no"?>
<!DOCTYPE svg PUBLIC "-//W3C//DTD SVG 20010904//EN"
 "http://www.w3.org/TR/2001/REC-SVG-20010904/DTD/svg10.dtd">
<svg version="1.0" xmlns="http://www.w3.org/2000/svg"
 width="512.000000pt" height="512.000000pt" viewBox="0 0 512.000000 512.000000"
 preserveAspectRatio="xMidYMid meet">

<g transform="translate(0.000000,512.000000) scale(0.100000,-0.100000)"
fill="#000000" stroke="none">
<path d="M3534 4879 l-41 -10 -12 -72 c-53 -307 -152 -640 -251 -846 -48 -99
-61 -136 -66 -190 -6 -65 -6 -68 21 -89 15 -12 37 -22 48 -22 64 0 216 266
308 541 48 143 100 349 131 516 20 113 21 127 7 151 -12 23 -22 27 -59 29 -25
1 -63 -3 -86 -8z"/>
<path d="M1382 4664 c-17 -12 -22 -25 -22 -58 0 -42 -1 -44 -35 -50 -93 -18
-82 -143 13 -139 38 2 40 0 46 -32 13 -65 87 -87 126 -38 16 21 20 35 15 60
-5 30 -4 33 18 33 39 0 77 36 77 74 0 45 -30 71 -81 69 -35 -2 -39 1 -39 21 0
60 -68 95 -118 60z"/>
<path d="M1727 3959 c-83 -20 -153 -74 -191 -147 -8 -15 -29 -83 -47 -151 -30
-114 -31 -124 -16 -133 38 -21 259 -190 377 -288 419 -349 1046 -975 1400
-1397 74 -88 262 -334 300 -391 l15 -23 123 36 c178 51 223 79 270 169 22 43
27 64 27 131 0 80 0 80 -69 210 -38 72 -103 189 -144 260 -417 726 -1037 1300
-1807 1671 -116 56 -174 69 -238 53z"/>
<path d="M4627 3454 c-4 -4 -87 -9 -185 -10 -179 -2 -316 -16 -520 -55 -101
-19 -117 -25 -162 -61 -56 -45 -70 -79 -49 -117 13 -23 21 -26 64 -26 28 1
118 13 201 28 187 32 401 51 513 44 104 -6 128 3 142 55 11 43 9 154 -4 142z"/>
<path d="M1187 2552 c-42 -158 -77 -292 -77 -298 0 -6 35 -38 77 -69 291 -220
719 -642 961 -948 48 -60 96 -120 107 -134 l20 -23 275 75 c151 41 283 78 293
82 16 7 4 26 -86 133 -415 498 -1067 1140 -1477 1457 -13 10 -26 -28 -93 -275z"/>
<path d="M836 1262 c-49 -180 -91 -332 -93 -338 -2 -7 19 -13 57 -17 100 -9
130 -41 130 -138 0 -29 4 -49 11 -49 16 0 642 171 658 180 32 17 -475 538
-659 677 -13 10 -27 -34 -104 -315z"/>
<path d="M4537 1512 c-10 -11 -17 -36 -17 -60 0 -38 -2 -42 -25 -42 -14 0 -37
-11 -50 -25 -50 -49 -19 -115 53 -115 37 0 40 -2 51 -40 19 -64 72 -79 118
-34 20 20 24 32 20 59 -5 30 -3 33 26 39 44 9 67 34 67 72 0 45 -41 78 -87 69
-30 -5 -33 -4 -33 18 0 13 -9 36 -21 51 -25 32 -77 36 -102 8z"/>
<path d="M935 561 c-3 -6 -38 -28 -78 -50 -86 -48 -103 -65 -155 -156 -22 -38
-51 -78 -66 -89 -36 -27 -86 -24 -143 10 -116 67 -132 72 -250 77 l-113 5 0
-75 c0 -83 17 -136 51 -153 12 -7 75 -16 139 -19 116 -7 116 -7 198 -55 132
-77 168 -68 244 60 54 92 71 109 158 157 95 52 114 75 108 134 -3 30 -18 70
-39 105 -34 58 -43 66 -54 49z"/>
</g>
</svg>
